<svg id="SvgjsSvg1112" width="944.9962768554688" height="510" xmlns="http://www.w3.org/2000/svg" version="1.1" xmlns:xlink="http://www.w3.org/1999/xlink" xmlns:svgjs="http://svgjs.com/svgjs"><defs id="SvgjsDefs1113"><marker id="SvgjsMarker1139" markerWidth="16" markerHeight="12" refX="16" refY="6" viewBox="0 0 16 12" orient="auto" markerUnits="userSpaceOnUse" stroke-dasharray="0,0"><path id="SvgjsPath1140" d="M0,2 L14,6 L0,11 L0,2" fill="#323232" stroke="#323232" stroke-width="2"></path></marker><marker id="SvgjsMarker1151" markerWidth="16" markerHeight="12" refX="16" refY="6" viewBox="0 0 16 12" orient="auto" markerUnits="userSpaceOnUse" stroke-dasharray="0,0"><path id="SvgjsPath1152" d="M0,2 L14,6 L0,11 L0,2" fill="#323232" stroke="#323232" stroke-width="2"></path></marker><marker id="SvgjsMarker1187" markerWidth="16" markerHeight="12" refX="16" refY="6" viewBox="0 0 16 12" orient="auto" markerUnits="userSpaceOnUse" stroke-dasharray="0,0"><path id="SvgjsPath1188" d="M0,2 L14,6 L0,11 L0,2" fill="#323232" stroke="#323232" stroke-width="2"></path></marker><marker id="SvgjsMarker1197" markerWidth="16" markerHeight="12" refX="16" refY="6" viewBox="0 0 16 12" orient="auto" markerUnits="userSpaceOnUse" stroke-dasharray="0,0"><path id="SvgjsPath1198" d="M0,2 L14,6 L0,11 L0,2" fill="#323232" stroke="#323232" stroke-width="2"></path></marker></defs><g id="SvgjsG1114" transform="translate(25.003677368164062,25.01103973388672)"><path id="SvgjsPath1115" d="M 54.5 30L 54.5 460" stroke-dasharray="3,4" stroke="rgba(50,50,50,1)" stroke-width="2" fill="none"></path><path id="SvgjsPath1116" d="M 0 0L 109 0L 109 30L 0 30Z" stroke="rgba(50,50,50,1)" stroke-width="2" fill-opacity="1" fill="#ffffff"></path><g id="SvgjsG1117"><text id="SvgjsText1118" font-family="微软雅黑" text-anchor="middle" font-size="13px" width="89px" fill="#323232" font-weight="400" align="middle" anchor="middle" family="微软雅黑" size="13px" weight="400" font-style="" opacity="1" y="5.55" transform="rotate(0)"><tspan id="SvgjsTspan1119" dy="16" x="54.5"><tspan id="SvgjsTspan1120" style="text-decoration:;">用户A（uid1）</tspan></tspan></text></g></g><g id="SvgjsG1121" transform="translate(628.0036773681641,25.01103973388672)"><path id="SvgjsPath1122" d="M 54.5 30L 54.5 460" stroke-dasharray="3,4" stroke="rgba(50,50,50,1)" stroke-width="2" fill="none"></path><path id="SvgjsPath1123" d="M 0 0L 109 0L 109 30L 0 30Z" stroke="rgba(50,50,50,1)" stroke-width="2" fill-opacity="1" fill="#ffffff"></path><g id="SvgjsG1124"><text id="SvgjsText1125" font-family="微软雅黑" text-anchor="middle" font-size="13px" width="89px" fill="#323232" font-weight="400" align="middle" anchor="middle" family="微软雅黑" size="13px" weight="400" font-style="" opacity="1" y="5.55" transform="rotate(0)"><tspan id="SvgjsTspan1126" dy="16" x="54.5"><tspan id="SvgjsTspan1127" style="text-decoration:;">用户B（uid2）</tspan></tspan></text></g></g><g id="SvgjsG1128" transform="translate(315.00367736816406,25.01103973388672)"><path id="SvgjsPath1129" d="M 50 30L 50 460" stroke-dasharray="3,4" stroke="rgba(50,50,50,1)" stroke-width="2" fill="none"></path><path id="SvgjsPath1130" d="M 0 0L 100 0L 100 30L 0 30Z" stroke="rgba(50,50,50,1)" stroke-width="2" fill-opacity="1" fill="#ffffff"></path><g id="SvgjsG1131"><text id="SvgjsText1132" font-family="微软雅黑" text-anchor="middle" font-size="13px" width="80px" fill="#323232" font-weight="400" align="middle" anchor="middle" family="微软雅黑" size="13px" weight="400" font-style="" opacity="1" y="5.55" transform="rotate(0)"><tspan id="SvgjsTspan1133" dy="16" x="50"><tspan id="SvgjsTspan1134" style="text-decoration:;">消息总线</tspan></tspan></text></g></g><g id="SvgjsG1135" transform="translate(64.50367736816406,83.01103973388672)"><path id="SvgjsPath1136" d="M 0 4Q 0 0 4 0L 26 0Q 30 0 30 4L 30 42Q 30 46 26 46L 4 46Q 0 46 0 42L 0 4Z" stroke="rgba(50,50,50,1)" stroke-width="2" fill-opacity="1" fill="#ffffff"></path></g><g id="SvgjsG1137"><path id="SvgjsPath1138" d="M94.50367736816406 106.01103973388672L350.00367736816406 157.01103973388672" stroke="#323232" stroke-width="2" fill="none" marker-end="url(#SvgjsMarker1139)"></path><rect id="SvgjsRect1141" width="100" height="15" x="172.25367736816406" y="124.01103973388672" fill="#ffffff"></rect><text id="SvgjsText1142" font-family="微软雅黑" text-anchor="middle" font-size="13px" width="100px" fill="#ff0000" font-weight="400" align="top" anchor="middle" family="微软雅黑" size="13px" weight="400" font-style="" opacity="1" y="122.06103973388672" transform="rotate(0)"><tspan id="SvgjsTspan1143" dy="16" x="222.25367736816406"><tspan id="SvgjsTspan1144" style="text-decoration:;">54/2/localid/gid</tspan></tspan></text></g><g id="SvgjsG1145" transform="translate(350.00367736816406,129.01103973388672)"><path id="SvgjsPath1146" d="M 0 4Q 0 0 4 0L 26 0Q 30 0 30 4L 30 52Q 30 56 26 56L 4 56Q 0 56 0 52L 0 4Z" stroke="rgba(50,50,50,1)" stroke-width="2" fill-opacity="1" fill="#ffffff"></path></g><g id="SvgjsG1147" transform="translate(350.00367736816406,225.01103973388672)"><path id="SvgjsPath1148" d="M 0 4Q 0 0 4 0L 26 0Q 30 0 30 4L 30 56Q 30 60 26 60L 4 60Q 0 60 0 56L 0 4Z" stroke="rgba(50,50,50,1)" stroke-width="2" fill-opacity="1" fill="#ffffff"></path></g><g id="SvgjsG1149"><path id="SvgjsPath1150" d="M364.00367736816406 185.01103973388672L365.00367736816406 225.01103973388672" stroke="#323232" stroke-width="2" fill="none" marker-end="url(#SvgjsMarker1151)"></path></g><g id="SvgjsG1153" transform="translate(394.00367736816406,129.01103973388672)"><path id="SvgjsPath1154" d="M 0 0L 107.41545104980469 0L 123.41545104980469 16L 123.41545104980469 72L 0 72L 0 0Z" stroke="none" fill-opacity="1" fill="#ffffaa"></path><path id="SvgjsPath1155" d="M 107.41545104980469 0L 107.41545104980469 16L 123.41545104980469 16Z" stroke="none" fill-opacity="1" fill="#cdcdcd"></path><path id="SvgjsPath1156" d="M 0 0L 107.41545104980469 0L 123.41545104980469 16L 123.41545104980469 72L 0 72L 0 0Z" stroke="none" fill="none"></path><g id="SvgjsG1157"><text id="SvgjsText1158" font-family="微软雅黑" text-anchor="start" font-size="13px" width="104px" fill="#323232" font-weight="400" align="middle" anchor="start" family="微软雅黑" size="13px" weight="400" font-style="" opacity="1" y="-11.95" transform="rotate(0)"><tspan id="SvgjsTspan1159" dy="16" x="10"><tspan id="SvgjsTspan1160" style="text-decoration:;"> </tspan></tspan><tspan id="SvgjsTspan1161" dy="16" x="10"><tspan id="SvgjsTspan1162" style="text-decoration:;">appid = 54</tspan></tspan><tspan id="SvgjsTspan1163" dy="16" x="10"><tspan id="SvgjsTspan1164" style="text-decoration:;">gid = 11</tspan></tspan><tspan id="SvgjsTspan1165" dy="16" x="10"><tspan id="SvgjsTspan1166" style="text-decoration:;font-size: inherit;">localId = l_id</tspan></tspan><tspan id="SvgjsTspan1167" dy="16" x="10"><tspan id="SvgjsTspan1168" style="text-decoration:;">serverId = s_id</tspan></tspan><tspan id="SvgjsTspan1169" dy="16" x="10"><tspan id="SvgjsTspan1170" style="text-decoration:;"> </tspan></tspan></text></g></g><g id="SvgjsG1171" transform="translate(167.00367736816406,225.01103973388672)"><path id="SvgjsPath1172" d="M 0 0L 161 0L 177 16L 177 49L 0 49L 0 0Z" stroke="none" fill-opacity="1" fill="#ffffaa"></path><path id="SvgjsPath1173" d="M 161 0L 161 16L 177 16Z" stroke="none" fill-opacity="1" fill="#cdcdcd"></path><path id="SvgjsPath1174" d="M 0 0L 161 0L 177 16L 177 49L 0 49L 0 0Z" stroke="none" fill="none"></path><g id="SvgjsG1175"><text id="SvgjsText1176" font-family="微软雅黑" text-anchor="start" font-size="13px" width="157px" fill="#323232" font-weight="400" align="middle" anchor="start" family="微软雅黑" size="13px" weight="400" font-style="" opacity="1" y="-0.44999999999999996" transform="rotate(0)"><tspan id="SvgjsTspan1177" dy="16" x="10"><tspan id="SvgjsTspan1178" style="text-decoration:;">54/2/l_id/g11/s_id/uid1</tspan></tspan><tspan id="SvgjsTspan1179" dy="16" x="10"><tspan id="SvgjsTspan1180" style="text-decoration:;">54/2/l_id/g11/s_id/uid1</tspan></tspan><tspan id="SvgjsTspan1181" dy="16" x="10"><tspan id="SvgjsTspan1182" style="text-decoration:;">54/2/l_id/g11/s_id/uid1</tspan></tspan></text></g></g><g id="SvgjsG1183" transform="translate(667.5036773681641,277.0110397338867)"><path id="SvgjsPath1184" d="M 0 4Q 0 0 4 0L 26 0Q 30 0 30 4L 30 55Q 30 59 26 59L 4 59Q 0 59 0 55L 0 4Z" stroke="rgba(50,50,50,1)" stroke-width="2" fill-opacity="1" fill="#ffffff"></path></g><g id="SvgjsG1185"><path id="SvgjsPath1186" d="M380.00367736816406 255.01103973388672L667.5036773681641 306.5110397338867" stroke="#323232" stroke-width="2" fill="none" marker-end="url(#SvgjsMarker1187)"></path><rect id="SvgjsRect1189" width="141" height="15" x="453.25367736816406" y="273.2610397338867" fill="#ffffff"></rect><text id="SvgjsText1190" font-family="微软雅黑" text-anchor="middle" font-size="13px" width="141px" fill="#ff0000" font-weight="400" align="top" anchor="middle" family="微软雅黑" size="13px" weight="400" font-style="" opacity="1" y="271.31103973388673" transform="rotate(0)"><tspan id="SvgjsTspan1191" dy="16" x="523.7536773681641"><tspan id="SvgjsTspan1192" style="text-decoration:;">54/2/l_id/g11/s_id/uid1</tspan></tspan></text></g><g id="SvgjsG1193" transform="translate(350.00367736816406,386.0110397338867)"><path id="SvgjsPath1194" d="M 0 4Q 0 0 4 0L 26 0Q 30 0 30 4L 30 56Q 30 60 26 60L 4 60Q 0 60 0 56L 0 4Z" stroke="rgba(50,50,50,1)" stroke-width="2" fill-opacity="1" fill="#ffffff"></path></g><g id="SvgjsG1195"><path id="SvgjsPath1196" d="M667.5036773681641 306.5110397338867L380.00367736816406 416.0110397338867" stroke="#323232" stroke-width="2" fill="none" marker-end="url(#SvgjsMarker1197)"></path><rect id="SvgjsRect1199" width="21" height="15" x="513.2536773681641" y="353.7610397338867" fill="#ffffff"></rect><text id="SvgjsText1200" font-family="微软雅黑" text-anchor="middle" font-size="13px" width="21px" fill="#ff0000" font-weight="400" align="top" anchor="middle" family="微软雅黑" size="13px" weight="400" font-style="" opacity="1" y="351.81103973388673" transform="rotate(0)"><tspan id="SvgjsTspan1201" dy="16" x="523.7536773681641"><tspan id="SvgjsTspan1202" style="text-decoration:;">ack</tspan></tspan></text></g><g id="SvgjsG1203" transform="translate(713.0036773681641,292.2610397338867)"><path id="SvgjsPath1204" d="M 0 0L 191 0L 207 16L 207 28.5L 0 28.5L 0 0Z" stroke="none" fill-opacity="1" fill="#ffffaa"></path><path id="SvgjsPath1205" d="M 191 0L 191 16L 207 16Z" stroke="none" fill-opacity="1" fill="#cdcdcd"></path><path id="SvgjsPath1206" d="M 0 0L 191 0L 207 16L 207 28.5L 0 28.5L 0 0Z" stroke="none" fill="none"></path><g id="SvgjsG1207"><text id="SvgjsText1208" font-family="微软雅黑" text-anchor="start" font-size="13px" width="187px" fill="#323232" font-weight="400" align="middle" anchor="start" family="微软雅黑" size="13px" weight="400" font-style="" opacity="1" y="4.8" transform="rotate(0)"><tspan id="SvgjsTspan1209" dy="16" x="10"><tspan id="SvgjsTspan1210" style="text-decoration:;">54/2/l_id/g11/s_id/uid1</tspan></tspan></text></g></g><g id="SvgjsG1211" transform="translate(73.50367736816406,225.01103973388672)"><path id="SvgjsPath1212" d="M 100 0Q 91 0 91 4.9L 91 19.6Q 91 24.5 78 24.5Q 91 24.5 91 29.4L 91 44.1Q 91 49 100 49" stroke="rgba(50,50,50,1)" stroke-width="2" fill="none"></path><path id="SvgjsPath1213" d="M 0 0L 100 0L 100 49L 0 49Z" stroke="none" fill="none"></path><g id="SvgjsG1214"><text id="SvgjsText1215" font-family="微软雅黑" text-anchor="end" font-size="13px" width="73px" fill="#323232" font-weight="400" align="middle" anchor="end" family="微软雅黑" size="13px" weight="400" font-style="" opacity="1" y="15.05" transform="rotate(0)"><tspan id="SvgjsTspan1216" dy="16" x="73"><tspan id="SvgjsTspan1217" style="text-decoration:;">gid=11</tspan></tspan></text></g></g></svg>